<svg width="16" height="16" fill="none" xmlns="http://www.w3.org/2000/svg"><g opacity=".8" clip-path="url(#clip0)"><path d="M2.921 0A2.915 2.915 0 000 2.921V13.08A2.915 2.915 0 002.921 16h5.506V9.745H6.773V7.493h1.654V5.569c0-1.512.977-2.9 3.228-2.9.912 0 1.586.088 1.586.088l-.053 2.103s-.688-.006-1.438-.006c-.812 0-.942.374-.942.995v1.644h2.444l-.107 2.252h-2.337V16h2.27A2.915 2.915 0 0016 13.079V2.921A2.915 2.915 0 0013.079 0H2.92z" fill="#fff"/></g><defs><clipPath id="clip0"><path fill="#fff" d="M0 0h16v16H0z"/></clipPath></defs></svg>