<svg width="147" height="29" fill="none" xmlns="http://www.w3.org/2000/svg"><path d="M11.277 11.195H.855V0h10.422v2.239H4.236v2.159h5.54v2.24h-5.54v2.318h7.042v2.239zm6.38 0a18.99 18.99 0 01-2.403.16c-.75 0-1.383-.219-1.896-.656-.514-.437-.77-1.018-.77-1.743V0h3.286v8.556c0 .16.062.293.188.4.125.107.281.16.47.16h1.126v2.079zm5.162-6.637c-.5 0-.75.213-.75.64v.88h3.192v-.88c0-.427-.25-.64-.752-.64h-1.69zm5.352 6.477c-2.416.213-4.607.32-6.572.32-.852 0-1.534-.219-2.047-.656-.514-.437-.77-1.018-.77-1.743V5.118c0-.8.263-1.424.789-1.871.538-.459 1.277-.688 2.216-.688h3.755c.94 0 1.672.23 2.197.688.539.447.808 1.071.808 1.87v2.96h-6.479v.64c0 .16.063.292.188.399.125.107.282.16.47.16 1.239 0 3.054-.08 5.445-.24v2zm8.542-8.316h3.474l-3.756 8.476h-3.756L28.92 2.719h3.474l2.16 5.757 2.159-5.757zm7.803 6.397c.664 0 1.415-.107 2.254-.32v-.96h-2.723a.699.699 0 00-.47.16.503.503 0 00-.188.4v.16c0 .16.063.293.188.4a.7.7 0 00.47.16h.47zm-3.474-6.237c2.291-.214 4.357-.32 6.197-.32.851 0 1.534.218 2.047.656.513.437.77 1.018.77 1.743v6.237h-2.91l-.188-.8a7.503 7.503 0 01-1.822.736c-.614.15-1.133.224-1.559.224h-.657c-.851 0-1.534-.219-2.047-.656-.513-.437-.77-1.018-.77-1.743v-.72c0-.725.257-1.306.77-1.743.513-.437 1.196-.656 2.047-.656h3.85v-.64a.503.503 0 00-.188-.4.699.699 0 00-.47-.16 42.2 42.2 0 00-2.704.097c-.976.064-1.765.112-2.366.144v-2zm17.647 8.316c-1.214.107-2.404.16-3.568.16-.851 0-1.534-.219-2.047-.656-.513-.437-.77-1.018-.77-1.743V4.878h-1.126v-2.16h1.126L52.68.8h2.91v1.919h2.348v2.159h-2.347v3.678c0 .16.062.293.188.4.125.107.281.16.469.16h2.441v2.079zm11.096-2.399c0 .8-.269 1.429-.807 1.887-.526.448-1.258.672-2.197.672h-4.32c-.938 0-1.677-.224-2.215-.672-.526-.458-.789-1.087-.789-1.887V5.118c0-.8.263-1.424.789-1.871.538-.459 1.277-.688 2.216-.688h4.319c.939 0 1.671.23 2.197.688.538.447.808 1.071.808 1.87v3.68zM66.5 5.358c0-.427-.25-.64-.751-.64h-2.253c-.501 0-.752.213-.752.64v3.198c0 .427.251.64.752.64h2.253c.5 0 .751-.213.751-.64V5.358zm10.702-.32c-.789 0-1.602.16-2.441.48v5.677h-3.286V2.719h2.91l.188 1.04c1.077-.8 2.203-1.2 3.38-1.2h.845v2.479h-1.596zm8.165 1.679V4.478h7.699v2.239h-7.7zm14.62 2.16c3.43.159 5.752.239 6.966.239.289 0 .514-.07.676-.208a.737.737 0 00.263-.592v-1.44h-4.319c-1.314 0-2.272-.25-2.873-.75-.588-.512-.883-1.328-.883-2.448v-.48c0-1.119.295-1.93.883-2.43.6-.512 1.558-.768 2.872-.768h6.592v2.239h-5.841c-.751 0-1.126.32-1.126.96v.32c0 .64.375.959 1.126.959h3.381c1.227 0 2.128.245 2.704.736.576.49.864 1.258.864 2.303v.8c0 1.044-.288 1.812-.864 2.302-.576.49-1.477.736-2.704.736-.639 0-1.315-.01-2.029-.032l-1.727-.064a139.281 139.281 0 01-3.963-.224V8.876zm16.073-5.998c1.214-.214 2.278-.32 3.192-.32h.845c.851 0 1.534.218 2.047.656.513.437.77 1.018.77 1.743v6.237h-3.286V5.278a.505.505 0 00-.188-.4.699.699 0 00-.469-.16h-.658c-.475 0-.914.021-1.314.064-.388.043-.701.075-.939.096v6.317h-3.286V0h3.286v2.879zm18.683 5.917c0 .8-.27 1.429-.808 1.887-.525.448-1.258.672-2.197.672h-4.319c-.939 0-1.678-.224-2.216-.672-.526-.458-.789-1.087-.789-1.887V5.118c0-.8.263-1.424.789-1.871.538-.459 1.277-.688 2.216-.688h4.319c.939 0 1.672.23 2.197.688.538.447.808 1.071.808 1.87v3.68zm-3.286-3.438c0-.427-.251-.64-.752-.64h-2.253c-.501 0-.751.213-.751.64v3.198c0 .427.25.64.751.64h2.253c.501 0 .752-.213.752-.64V5.358zm10.513-.48c-.663 0-1.414.106-2.253.32v3.838h2.817c.501 0 .751-.213.751-.64V5.438a.505.505 0 00-.188-.4.699.699 0 00-.469-.16h-.658zm-2.253 6.317v2.719h-3.286V2.719h2.91l.188.8a7.09 7.09 0 011.803-.72c.626-.16 1.151-.24 1.577-.24h.845c.852 0 1.534.218 2.047.656.513.437.77 1.018.77 1.743v3.678c0 .8-.269 1.429-.807 1.887-.526.448-1.259.672-2.197.672h-3.85zM6.15 20.375c.189 0 .527.032 1.015.096v1.295h-.45a.513.513 0 00-.305.096.65.65 0 00-.203.192l-1.07 1.727 2.197 3.407h-2.14l-1.747-2.735H2.433v2.735H.404V20.47h2.029v2.639h1.014l1.126-1.823a2.15 2.15 0 01.609-.653c.248-.173.57-.259.969-.259zm7.83 5.374c0 .48-.162.857-.485 1.132-.315.269-.755.403-1.318.403H9.585c-.563 0-1.006-.134-1.33-.403-.315-.275-.472-.653-.472-1.132v-2.207c0-.48.157-.855.473-1.123.323-.275.766-.413 1.33-.413h2.59c.564 0 1.004.138 1.32.413.322.268.484.643.484 1.123v2.207zm-1.972-2.063c0-.256-.15-.384-.45-.384h-1.353c-.3 0-.45.128-.45.384v1.919c0 .255.15.383.45.383h1.352c.3 0 .45-.128.45-.383v-1.92zm7.548 2.638H18.09l-1.127-1.727v2.59h-1.972v-5.085h2.085l1.746 2.687 1.747-2.687h2.084v5.086h-1.972v-2.59l-1.126 1.726zm12.171-.671c0 .48-.161.857-.484 1.132-.316.269-.755.403-1.318.403h-1.24v1.631h-1.972v-1.631h-1.239c-.563 0-1.006-.134-1.33-.403-.315-.275-.473-.653-.473-1.132v-2.015c0-.48.158-.855.474-1.123.323-.275.766-.413 1.329-.413h1.24v-1.631h1.971v1.631h1.24c.563 0 1.002.138 1.318.413.323.268.484.643.484 1.122v2.016zm-6.084-.144c0 .256.15.383.45.383h.79v-2.494h-.79c-.3 0-.45.128-.45.383v1.728zm4.113-1.728c0-.255-.15-.383-.451-.383h-.676v2.494h.676c.3 0 .45-.127.45-.383V23.78zm9.069 1.968c0 .48-.162.857-.485 1.132-.315.269-.755.403-1.318.403h-2.591c-.564 0-1.007-.134-1.33-.403-.316-.275-.473-.653-.473-1.132v-2.207c0-.48.157-.855.473-1.123.323-.275.766-.413 1.33-.413h2.591c.563 0 1.003.138 1.318.413.323.268.485.643.485 1.123v2.207zm-1.972-2.063c0-.256-.15-.384-.45-.384H35.05c-.3 0-.45.128-.45.384v1.919c0 .255.15.383.45.383h1.352c.3 0 .451-.128.451-.383v-1.92zm6.308-.288c-.398 0-.848.064-1.352.192v2.302h1.69c.3 0 .451-.127.451-.383v-1.776a.302.302 0 00-.113-.24.42.42 0 00-.281-.095h-.395zm-1.352 3.79v1.631h-1.971v-6.717h1.746l.113.48a4.26 4.26 0 011.081-.432 3.95 3.95 0 01.947-.144h.507c.51 0 .92.131 1.228.394.308.262.462.61.462 1.046v2.207c0 .48-.162.857-.485 1.132-.315.269-.755.403-1.318.403h-2.31zm8.506-3.79v3.79h-1.972v-3.79h-1.86v-1.296h5.69v1.296h-1.858zm9.805-1.296h2.084v5.086h-1.972v-2.783l-1.915 2.783h-2.084v-5.086h1.971v2.783l1.916-2.783zm8.447.864a11.26 11.26 0 011.915-.192h.507c.511 0 .92.131 1.228.393.308.263.463.611.463 1.046v1.536c0 .48-.162.857-.485 1.132-.316.269-.755.403-1.318.403h-2.48c-.563 0-1.006-.134-1.329-.403-.315-.275-.473-.653-.473-1.132v-3.407c0-.46.18-.848.54-1.161.369-.314.865-.502 1.488-.566l3.831-.384.17 1.343-3.494.336c-.375.039-.563.199-.563.48v.576zm1.69 3.022c.3 0 .45-.128.45-.383v-1.2a.302.302 0 00-.112-.24.42.42 0 00-.282-.096h-.394a7.28 7.28 0 00-.789.039c-.233.025-.42.044-.563.057v1.44c0 .255.15.383.45.383h1.24zm5.637-2.782c-.3 0-.45.128-.45.384v.527h1.915v-.527c0-.256-.15-.384-.45-.384h-1.015zm3.212 3.886a45.22 45.22 0 01-3.944.192c-.51 0-.92-.131-1.228-.393-.308-.263-.462-.611-.462-1.046v-2.303c0-.48.158-.855.473-1.123.323-.275.766-.413 1.33-.413h2.253c.563 0 1.003.138 1.319.413.322.268.484.643.484 1.123v1.775h-3.887v.384c0 .096.037.175.112.24a.42.42 0 00.282.095c.744 0 1.833-.048 3.268-.144v1.2zm.897-1.151c1.434.095 2.561.143 3.38.143a.42.42 0 00.282-.096.302.302 0 00.112-.24v-.143a.302.302 0 00-.112-.24.42.42 0 00-.282-.096h-2.48v-1.2h2.254a.42.42 0 00.282-.096.302.302 0 00.113-.24v-.096a.302.302 0 00-.113-.24.42.42 0 00-.282-.095h-3.042v-1.2h3.719c.503 0 .908.128 1.216.384.316.25.474.531.474.844 0 .64-.338 1.03-1.014 1.171.337.051.627.192.867.422.248.23.372.55.372.96 0 .41-.154.745-.462 1.008-.308.262-.717.393-1.228.393-1.255 0-2.607-.064-4.056-.192v-1.151zm12.617-.192c0 .48-.162.857-.485 1.132-.315.269-.755.403-1.318.403h-2.591c-.564 0-1.007-.134-1.33-.403-.315-.275-.473-.653-.473-1.132v-2.207c0-.48.158-.855.473-1.123.323-.275.766-.413 1.33-.413h2.591c.564 0 1.003.138 1.319.413.323.268.484.643.484 1.123v2.207zm-1.972-2.063c0-.256-.15-.384-.45-.384h-1.353c-.3 0-.45.128-.45.384v1.919c0 .255.15.383.45.383h1.353c.3 0 .45-.128.45-.383v-1.92zm8.956-1.584v5.086h-1.971v-3.79h-2.029v3.79h-1.971v-5.086h5.971zm3.492 3.838c.398 0 .849-.064 1.352-.191v-.576h-1.634a.423.423 0 00-.282.096.302.302 0 00-.112.24v.096c0 .096.037.176.112.24.076.064.17.096.282.096h.282zm-2.085-3.742a40.51 40.51 0 013.719-.192c.51 0 .92.131 1.228.394.308.262.462.61.462 1.046v3.742h-1.747l-.112-.48a4.503 4.503 0 01-1.093.442 4.07 4.07 0 01-.936.134h-.394c-.511 0-.92-.131-1.228-.393-.308-.263-.462-.611-.462-1.046v-.432c0-.435.154-.784.462-1.046.308-.262.717-.394 1.228-.394h2.31v-.383a.303.303 0 00-.113-.24.419.419 0 00-.281-.096c-.489 0-1.029.019-1.623.057-.586.039-1.059.067-1.42.087v-1.2zm11.715 4.894a41.557 41.557 0 01-3.718.192c-.511 0-.92-.131-1.228-.393-.308-.263-.462-.611-.462-1.046v-2.207c0-.48.158-.855.473-1.123.323-.275.766-.413 1.33-.413h3.605v1.296h-2.985c-.301 0-.451.128-.451.383v1.872a.3.3 0 00.113.24.418.418 0 00.281.095c.676 0 1.69-.047 3.042-.143v1.247zm4.9-3.119v-1.87h1.971v5.085h-1.971v-1.92h-2.028v1.92h-1.972v-5.086h1.972v1.871h2.028zm9.181 1.776c0 .48-.161.857-.484 1.132-.316.269-.755.403-1.319.403h-2.591c-.563 0-1.007-.134-1.33-.403-.315-.275-.473-.653-.473-1.132v-2.207c0-.48.158-.855.473-1.123.323-.275.767-.413 1.33-.413h2.591c.564 0 1.003.138 1.319.413.323.268.484.643.484 1.123v2.207zm-1.972-2.063c0-.256-.15-.384-.45-.384h-1.352c-.301 0-.451.128-.451.384v1.919c0 .255.15.383.451.383h1.352c.3 0 .45-.128.45-.383v-1.92zm8.281 3.406a41.596 41.596 0 01-3.719.192c-.51 0-.92-.131-1.228-.393-.308-.263-.462-.611-.462-1.046v-2.207c0-.48.158-.855.473-1.123.323-.275.767-.413 1.33-.413h3.606v1.296h-2.986c-.301 0-.451.128-.451.383v1.872c0 .096.038.175.113.24a.418.418 0 00.281.095c.676 0 1.69-.047 3.043-.143v1.247zm4.279-3.694v3.79h-1.972v-3.79h-1.859v-1.296h5.69v1.296h-1.859zm2.539 3.79v-5.086h1.972v1.584h2.31c.511 0 .92.13 1.228.393.308.262.462.61.462 1.046v.624c0 .435-.154.783-.462 1.046-.308.262-.717.393-1.228.393h-4.282zm3.606-1.2a.421.421 0 00.282-.096.302.302 0 00.112-.24v-.431a.302.302 0 00-.112-.24.421.421 0 00-.282-.096h-1.634v1.103h1.634z" fill="#fff"/></svg>