<svg width="16" height="16" fill="none" xmlns="http://www.w3.org/2000/svg"><path d="M12.325 15.751c-.15 0-.299-.016-.445-.049a15.072 15.072 0 01-7.387-3.889 14.538 14.538 0 01-4-7.222 2.036 2.036 0 01.6-1.902L2.871.978a.889.889 0 01.685-.24.889.889 0 01.644.387l2.222 3.284a.711.711 0 01-.049.844L5.258 6.587A8.418 8.418 0 007.11 9.205a8.56 8.56 0 002.698 1.817l1.382-1.097a.729.729 0 01.827-.054l3.355 2.17a.889.889 0 01.183 1.381l-1.734 1.716a2.108 2.108 0 01-1.497.613zM3.485 1.618L1.706 3.329a1.129 1.129 0 00-.334 1.067 13.644 13.644 0 003.738 6.782 14.178 14.178 0 006.951 3.658 1.222 1.222 0 001.111-.33l1.734-1.715-3.24-2.093-1.485 1.182a.445.445 0 01-.409.076 8.915 8.915 0 01-3.27-2.111 8.662 8.662 0 01-2.165-3.2.444.444 0 01.106-.423l1.2-1.435-2.16-3.17z" fill="#fff"/></svg>