<svg width="16" height="16" fill="none" xmlns="http://www.w3.org/2000/svg"><path d="M13.808 9.04c.064-.35.098-.71.098-1.07a5.876 5.876 0 00-1.73-4.173A5.872 5.872 0 0010.3 2.533a5.936 5.936 0 00-3.414-.358 3.517 3.517 0 00-1.642-.41c-.933 0-1.811.365-2.47 1.024A3.473 3.473 0 001.75 5.26c0 .594.153 1.178.44 1.694a5.858 5.858 0 00.375 3.314 5.872 5.872 0 001.263 1.877 5.873 5.873 0 001.877 1.264 5.864 5.864 0 003.33.372 3.496 3.496 0 001.72.453c.932 0 1.81-.363 2.47-1.024a3.466 3.466 0 001.023-2.47 3.475 3.475 0 00-.44-1.698zm-5.781 2.546c-2.097 0-3.035-1.031-3.035-1.803 0-.397.292-.674.696-.674.896 0 .665 1.29 2.339 1.29.857 0 1.33-.466 1.33-.943 0-.286-.14-.604-.705-.743l-1.866-.466C5.284 7.87 5.01 7.057 5.01 6.295c0-1.584 1.492-2.18 2.894-2.18 1.29 0 2.812.715 2.812 1.665 0 .407-.353.643-.756.643-.766 0-.625-1.059-2.167-1.059-.766 0-1.19.347-1.19.842 0 .496.605.653 1.13.774l1.382.306c1.512.337 1.895 1.22 1.895 2.052 0 1.285-.99 2.248-2.984 2.248z" fill="#fff" opacity=".8"/></svg>