<svg width="16" height="16" fill="none" xmlns="http://www.w3.org/2000/svg"><g opacity=".8" clip-path="url(#clip0)"><path d="M10.455 0H5.544C1.062 0-.001 1.063-.001 5.545v4.911C-.001 14.938 1.062 16 5.544 16h4.911c4.482 0 5.544-1.062 5.544-5.544V5.545C16 1.063 14.927 0 10.456 0zm2.461 11.414h-1.162c-.44 0-.575-.349-1.367-1.151-.687-.666-.991-.755-1.161-.755-.24 0-.307.068-.307.396v1.05c0 .281-.089.45-.834.45-1.232 0-2.599-.745-3.557-2.133-1.446-2.034-1.841-3.558-1.841-3.873 0-.169.067-.327.393-.327h1.164c.294 0 .406.135.52.45.576 1.662 1.535 3.117 1.93 3.117.146 0 .214-.068.214-.44V6.482c-.045-.792-.461-.86-.461-1.14 0-.136.112-.271.291-.271h1.83c.248 0 .339.135.339.426v2.316c0 .25.112.338.18.338.146 0 .27-.088.541-.36.836-.937 1.435-2.383 1.435-2.383a.513.513 0 01.508-.328h1.164c.349 0 .427.18.349.43-.146.677-1.57 2.688-1.57 2.688-.123.202-.17.291 0 .518.125.169.531.52.802.836.497.565.88 1.039.981 1.367.115.325-.054.495-.383.495h.002z" fill="3f9cf3"/></g><defs><clipPath id="clip0"><path fill="3f9cf3" d="M0 0h16v16H0z"/></clipPath></defs></svg>