<svg width="16" height="16" fill="none" xmlns="http://www.w3.org/2000/svg"><g opacity=".8" fill="#fff"><path d="M6.987 12.293c-.146.207-.285.31-.418.31-.088 0-.138-.053-.154-.155a1.948 1.948 0 01-.007-.257V9.504h-.66v2.886c0 .257.022.431.058.542.066.185.213.271.426.271.243 0 .493-.147.755-.448v.398h.662V9.505h-.662v2.788zm-3.64-3.347h.777v4.207h.736V8.946h.792v-.69H3.347v.69zm4.502-3.19c.215 0 .318-.17.318-.512V3.693c0-.341-.103-.51-.318-.51-.216 0-.32.169-.32.51v1.551c0 .341.104.512.32.512zM9.565 9.46c-.243 0-.47.133-.683.396v-1.6h-.66v4.897h.66v-.354c.221.273.448.404.683.404.263 0 .44-.138.529-.41.044-.154.066-.397.066-.735v-1.453c0-.345-.022-.586-.066-.733-.089-.273-.266-.412-.529-.412zM9.5 12.11c0 .33-.097.492-.287.492-.109 0-.22-.052-.33-.162v-2.224c.11-.11.22-.161.33-.161.19 0 .287.169.287.498v1.557zm2.17-2.65c-.337 0-.6.124-.791.374-.14.184-.204.47-.204.86v1.278c0 .387.072.675.212.857.19.25.454.374.8.374.346 0 .616-.13.8-.395a.95.95 0 00.154-.397 5.27 5.27 0 00.014-.425v-.097h-.675c0 .265-.008.412-.014.448-.038.176-.133.265-.295.265-.227 0-.338-.169-.338-.506v-.647h1.322v-.756c0-.39-.066-.675-.204-.859-.186-.25-.449-.374-.78-.374zm.324 1.439h-.66v-.338c0-.337.11-.506.33-.506.22 0 .33.169.33.506v.338z"/><path d="M14.105.421H1.895A1.48 1.48 0 00.42 1.895v12.21c0 .81.663 1.474 1.474 1.474h12.21c.81 0 1.474-.663 1.474-1.474V1.895c0-.81-.663-1.474-1.474-1.474zm-4.72 2.204h.666V5.34c0 .157 0 .239.008.26.015.104.067.157.157.157.134 0 .274-.104.422-.313V2.625h.668v3.687h-.668v-.403c-.266.306-.52.454-.763.454-.215 0-.364-.088-.43-.275-.037-.11-.06-.288-.06-.548V2.625zM6.862 3.827c0-.394.067-.682.209-.868.185-.252.445-.378.778-.378.334 0 .594.126.78.378.139.186.207.474.207.868v1.292c0 .391-.068.682-.208.867-.185.25-.444.377-.78.377-.332 0-.592-.126-.777-.377-.142-.185-.21-.476-.21-.867V3.827zM5.075 1.365l.526 1.942.505-1.942h.75l-.892 2.943v2.004h-.74V4.308c-.068-.355-.216-.875-.453-1.565-.156-.459-.32-.92-.475-1.378h.78zm8.204 12.007a1.38 1.38 0 01-1.183 1.075c-1.356.151-2.73.152-4.096.151-1.367.001-2.74 0-4.096-.151a1.38 1.38 0 01-1.182-1.075c-.19-.828-.19-1.733-.19-2.585 0-.854.002-1.758.192-2.587a1.38 1.38 0 011.182-1.074c1.357-.152 2.73-.152 4.096-.152 1.367 0 2.74 0 4.097.152A1.381 1.381 0 0113.28 8.2c.19.83.19 1.733.19 2.587 0 .852-.002 1.757-.192 2.585z"/></g></svg>